<svg width="72" height="28" viewBox="0 0 72 28" fill="none" xmlns="http://www.w3.org/2000/svg">
    <path d="M67.2199 27.222V19.3118H67.124C66.9258 19.7656 66.6446 20.1907 66.2802 20.587C65.9159 20.9833 65.4589 21.3029 64.9091 21.5458C64.3658 21.7887 63.7234 21.9102 62.9819 21.9102C61.8953 21.9102 60.9077 21.6289 60.0192 21.0664C59.1307 20.5039 58.4212 19.6602 57.8907 18.5352C57.3601 17.4102 57.0949 16.0135 57.0949 14.3452C57.0949 12.613 57.3697 11.1875 57.9194 10.0689C58.4692 8.95031 59.1883 8.12254 60.0768 7.58561C60.9716 7.04867 61.9336 6.78021 62.9628 6.78021C63.7362 6.78021 64.3978 6.91444 64.9475 7.18291C65.4972 7.44498 65.951 7.78376 66.309 8.19924C66.667 8.61473 66.9386 9.04619 67.124 9.49363H67.2678V6.97197H71.9084V27.222H67.2199ZM64.6119 18.2571C65.1808 18.2571 65.6666 18.0973 66.0693 17.7777C66.472 17.4517 66.782 16.9947 66.9993 16.4066C67.2167 15.8186 67.3253 15.1282 67.3253 14.3356C67.3253 13.5302 67.2167 12.8367 66.9993 12.255C66.7884 11.6733 66.4784 11.2259 66.0693 10.9127C65.6666 10.5995 65.1808 10.4429 64.6119 10.4429C64.0302 10.4429 63.538 10.6027 63.1353 10.9223C62.7327 11.2419 62.4258 11.6925 62.2149 12.2742C62.0103 12.8558 61.9081 13.543 61.9081 14.3356C61.9081 15.1282 62.0135 15.8186 62.2245 16.4066C62.4354 16.9947 62.739 17.4517 63.1353 17.7777C63.538 18.0973 64.0302 18.2571 64.6119 18.2571Z" fill="#272727" />
    <path d="M51.4962 21.6992V6.97197H56.1847V21.6992H51.4962ZM53.8452 5.25571C53.1869 5.25571 52.6212 5.03838 52.1482 4.60372C51.6751 4.16266 51.4386 3.63212 51.4386 3.0121C51.4386 2.39846 51.6751 1.87431 52.1482 1.43965C52.6212 0.998602 53.1869 0.778076 53.8452 0.778076C54.51 0.778076 55.0757 0.998602 55.5423 1.43965C56.0153 1.87431 56.2519 2.39846 56.2519 3.0121C56.2519 3.63212 56.0153 4.16266 55.5423 4.60372C55.0757 5.03838 54.51 5.25571 53.8452 5.25571Z" fill="#272727" />
    <path d="M50.0779 2.06288V21.6992H45.3893V2.06288H50.0779Z" fill="#272727" />
    <path d="M37.571 21.9773C36.0305 21.9773 34.701 21.6737 33.5824 21.0664C32.4702 20.4528 31.6136 19.5803 31.0128 18.4489C30.4183 17.3111 30.1211 15.9592 30.1211 14.3931C30.1211 12.8718 30.4215 11.5423 31.0224 10.4045C31.6232 9.26032 32.4702 8.37183 33.5632 7.73901C34.6562 7.09981 35.9442 6.78021 37.4272 6.78021C38.4755 6.78021 39.4343 6.94321 40.3036 7.2692C41.1729 7.59519 41.924 8.07779 42.5568 8.717C43.1896 9.3562 43.6818 10.1456 44.0334 11.0853C44.3849 12.0185 44.5607 13.0892 44.5607 14.2973V15.467H31.7606V12.744H40.1981C40.1917 12.2454 40.0735 11.8012 39.8434 11.4112C39.6133 11.0213 39.2969 10.7177 38.8942 10.5004C38.4979 10.2767 38.0408 10.1648 37.5231 10.1648C36.9989 10.1648 36.5291 10.283 36.1136 10.5196C35.6981 10.7497 35.3689 11.0661 35.126 11.4688C34.8832 11.8651 34.7553 12.3157 34.7425 12.8207V15.5916C34.7425 16.1925 34.8608 16.7198 35.0973 17.1737C35.3338 17.6211 35.6694 17.9695 36.104 18.2188C36.5387 18.4681 37.0565 18.5927 37.6573 18.5927C38.0728 18.5927 38.4499 18.5352 38.7887 18.4201C39.1275 18.3051 39.4183 18.1357 39.6612 17.912C39.9041 17.6882 40.0863 17.4134 40.2077 17.0874L44.5128 17.212C44.3338 18.1772 43.9407 19.0178 43.3334 19.7337C42.7326 20.4432 41.9432 20.9961 40.9652 21.3924C39.9872 21.7823 38.8558 21.9773 37.571 21.9773Z" fill="#272727" />
    <path d="M30.0187 6.97197V10.4237H20.7279V6.97197H30.0187ZM22.6743 3.44356H27.3628V17.0682C27.3628 17.3558 27.4076 17.5892 27.4971 17.7681C27.593 17.9407 27.7304 18.0654 27.9094 18.1421C28.0883 18.2124 28.3025 18.2475 28.5518 18.2475C28.7307 18.2475 28.9193 18.2316 29.1175 18.1996C29.322 18.1612 29.4754 18.1293 29.5777 18.1037L30.2872 21.4883C30.0635 21.5522 29.7471 21.6321 29.338 21.728C28.9353 21.8239 28.4527 21.8846 27.8902 21.9102C26.7908 21.9613 25.8479 21.8335 25.0617 21.5267C24.2819 21.2134 23.6842 20.7277 23.2687 20.0693C22.8597 19.4109 22.6615 18.5831 22.6743 17.586V3.44356Z" fill="#272727" />
    <path d="M10.8482 13.3001V21.6992H6.15959V6.97197H10.618V9.67581H10.781C11.107 8.77453 11.6631 8.06821 12.4494 7.55684C13.2356 7.03909 14.172 6.78021 15.2587 6.78021C16.2942 6.78021 17.1923 7.01352 17.9529 7.48014C18.72 7.94036 19.3144 8.58596 19.7363 9.41693C20.1646 10.2415 20.3755 11.2067 20.3691 12.3125V21.6992H15.6805V13.233C15.6869 12.4148 15.4792 11.7756 15.0573 11.3154C14.6418 10.8551 14.0634 10.625 13.3219 10.625C12.8297 10.625 12.395 10.7337 12.0179 10.951C11.6472 11.162 11.3595 11.4656 11.155 11.8619C10.9568 12.2582 10.8545 12.7376 10.8482 13.3001Z" fill="#272727" />
    <path d="M4.74609 2.06288V21.6992H0V2.06288H4.74609Z" fill="#272727" />
</svg>